# xmcd CD database file generated by freedbAccess_ocx
#
# Track frame offsets:
#       150
#       11567
#       25855
#       40237
#       51027
#       67607
#       78837
#       89370
#       101817
#       116117
#       128382
#       141020
#       150797
#       163112
#       177510
#       191225
#
# Disc length: 2824 seconds
#
# Revision: 0
# Processed by: cddbd v1.4PL0 Copyright (c) Steve Scherf et al.
# Submitted via: CDnGo 2.00
#
DISCID=c30b0610
DTITLE=Dean Martin - Dean Martin sings Country
DYEAR=1900
DGENRE=Country
TTITLE0=Send me the pillow you dream on
TTITLE1=Green green grass of home
TTITLE2=Crying time
TTITLE3=(Remember me) I'm the one who loves you
TTITLE4=Detroit city
TTITLE5=Born to lose
TTITLE6=Lay some happiness on me
TTITLE7=Little ole wine drinker me
TTITLE8=My heart cries for you
TTITLE9=In the misty moonlight
TTITLE10=You've still got a place in my heart
TTITLE11=The first thing ev'ry morning (and the last thing ev'ry night)
TTITLE12=Detour
TTITLE13=I take a lot of pride in what I am
TTITLE14=Where the blue and lonely go
TTITLE15=Little green apples
EXTD=
EXTT0=
EXTT1=
EXTT2=
EXTT3=
EXTT4=
EXTT5=
EXTT6=
EXTT7=
EXTT8=
EXTT9=
EXTT10=
EXTT11=
EXTT12=
EXTT13=
EXTT14=
EXTT15=
PLAYORDER=
